<?xml version="1.0" encoding="UTF-8"?>
<svg version="1.1" xmlns="http://www.w3.org/2000/svg" width="150" height="150">
<path d="M0 0 C0.80863998 -0.0049649 1.61727997 -0.00992981 2.45042419 -0.01504517 C5.12215022 -0.02963439 7.79381687 -0.03646344 10.46557617 -0.04199219 C12.3263906 -0.04774637 14.18720501 -0.05350407 16.04801941 -0.05926514 C19.94933345 -0.06976595 23.85062694 -0.07561461 27.75195312 -0.07910156 C32.741973 -0.08458387 37.73171968 -0.10861018 42.72165394 -0.13707352 C46.56590052 -0.15573112 50.41008171 -0.16090716 54.25436974 -0.16243744 C56.0935077 -0.16545752 57.93264468 -0.17346422 59.77173805 -0.18662262 C62.34933671 -0.20374829 64.9262732 -0.20178708 67.50390625 -0.1953125 C68.25791718 -0.20452728 69.0119281 -0.21374207 69.78878784 -0.22323608 C74.88344578 -0.18330969 78.4132586 0.79355674 82.94604492 3.16113281 C88.11323499 8.46430157 88.09670081 13.09134265 88.10717773 20.21508789 C88.11462509 21.42804787 88.11462509 21.42804787 88.1222229 22.66551208 C88.13681212 25.33723811 88.14364118 28.00890476 88.14916992 30.68066406 C88.15492411 32.54147849 88.16068181 34.4022929 88.16644287 36.2631073 C88.17694369 40.16442134 88.18279235 44.06571483 88.1862793 47.96704102 C88.19176161 52.95706089 88.21578792 57.94680757 88.24425125 62.93674183 C88.26290885 66.78098841 88.2680849 70.6251696 88.26961517 74.46945763 C88.27263525 76.30859559 88.28064196 78.14773257 88.29380035 79.98682594 C88.31092602 82.5644246 88.30896482 85.14136109 88.30249023 87.71899414 C88.31170502 88.47300507 88.3209198 89.22701599 88.33041382 90.00387573 C88.29048743 95.09853367 87.313621 98.62834649 84.94604492 103.16113281 C79.64287616 108.32832288 75.01583508 108.3117887 67.89208984 108.32226562 C67.08344986 108.32723053 66.27480988 108.33219543 65.44166565 108.33731079 C62.76993962 108.35190001 60.09827297 108.35872907 57.42651367 108.36425781 C55.56569925 108.370012 53.70488484 108.3757697 51.84407043 108.38153076 C47.94275639 108.39203158 44.0414629 108.39788024 40.14013672 108.40136719 C35.15011685 108.4068495 30.16037016 108.43087581 25.17043591 108.45933914 C21.32618932 108.47799674 17.48200814 108.48317279 13.63772011 108.48470306 C11.79858215 108.48772314 9.95944516 108.49572985 8.12035179 108.50888824 C5.54275313 108.52601391 2.96581664 108.52405271 0.38818359 108.51757812 C-0.36582733 108.52679291 -1.11983826 108.53600769 -1.896698 108.54550171 C-6.99135594 108.50557532 -10.52116876 107.52870889 -15.05395508 105.16113281 C-20.22114515 99.85796406 -20.20461096 95.23092297 -20.21508789 88.10717773 C-20.22253525 86.89421776 -20.22253525 86.89421776 -20.23013306 85.65675354 C-20.24472228 82.98502751 -20.25155133 80.31336086 -20.25708008 77.64160156 C-20.26283426 75.78078714 -20.26859196 73.91997273 -20.27435303 72.05915833 C-20.28485384 68.15784428 -20.2907025 64.25655079 -20.29418945 60.35522461 C-20.29967176 55.36520474 -20.32369808 50.37545805 -20.35216141 45.3855238 C-20.37081901 41.54127721 -20.37599505 37.69709603 -20.37752533 33.852808 C-20.38054541 32.01367004 -20.38855211 30.17453305 -20.40171051 28.33543968 C-20.41883618 25.75784102 -20.41687497 23.18090453 -20.41040039 20.60327148 C-20.41961517 19.84926056 -20.42882996 19.09524963 -20.43832397 18.31838989 C-20.39839758 13.22373195 -19.42153116 9.69391913 -17.05395508 5.16113281 C-11.75078632 -0.00605726 -7.12374524 0.01047693 0 0 Z M7.94604492 14.16113281 C7.94604492 37.26113281 7.94604492 60.36113281 7.94604492 84.16113281 C25.43604492 84.16113281 42.92604492 84.16113281 60.94604492 84.16113281 C60.94604492 80.53113281 60.94604492 76.90113281 60.94604492 73.16113281 C48.07604492 73.16113281 35.20604492 73.16113281 21.94604492 73.16113281 C21.94604492 66.89113281 21.94604492 60.62113281 21.94604492 54.16113281 C33.16604492 54.16113281 44.38604492 54.16113281 55.94604492 54.16113281 C55.94604492 50.53113281 55.94604492 46.90113281 55.94604492 43.16113281 C44.72604492 43.16113281 33.50604492 43.16113281 21.94604492 43.16113281 C21.94604492 37.22113281 21.94604492 31.28113281 21.94604492 25.16113281 C34.48604492 25.16113281 47.02604492 25.16113281 59.94604492 25.16113281 C59.94604492 21.53113281 59.94604492 17.90113281 59.94604492 14.16113281 C42.78604492 14.16113281 25.62604492 14.16113281 7.94604492 14.16113281 Z " fill="#65BFFE" transform="translate(41.053955078125,20.8388671875)"/>
<path d="M0 0 C1.86207297 1.85124696 3.68857508 3.72300384 5.5 5.625 C9.66402357 9.58082239 13.70511397 9.15338321 19.13989258 9.16113281 C20.38430367 9.16858017 20.38430367 9.16858017 21.65385437 9.17617798 C24.40075508 9.19079303 27.14759803 9.19760071 29.89453125 9.203125 C31.80401104 9.20887724 33.71349082 9.21463496 35.62297058 9.22039795 C39.62861398 9.23090623 43.63423733 9.23674995 47.63989258 9.24023438 C52.76791988 9.24571705 57.89568139 9.26974099 63.02362537 9.29820633 C66.96905792 9.31684796 70.91442666 9.32203914 74.85989952 9.32357025 C76.75010315 9.32659414 78.64030572 9.33461376 80.53046608 9.34775543 C83.17782315 9.3648469 85.82453367 9.3629281 88.47192383 9.35644531 C89.24980255 9.3656601 90.02768127 9.37487488 90.82913208 9.3843689 C95.63299054 9.34759594 98.94694326 8.60259152 103 6 C105.29582863 2.93282876 105.29582863 2.93282876 107 0 C107.33 0 107.66 0 108 0 C108.32926038 6.74374033 108.49457378 12.09537534 105 18 C99.69683124 23.16719007 95.06979016 23.15065588 87.94604492 23.16113281 C87.13740494 23.16609772 86.32876495 23.17106262 85.49562073 23.17617798 C82.8238947 23.1907672 80.15222805 23.19759625 77.48046875 23.203125 C75.61965433 23.20887919 73.75883991 23.21463689 71.89802551 23.22039795 C67.99671147 23.23089876 64.09541798 23.23674743 60.1940918 23.24023438 C55.20407193 23.24571669 50.21432524 23.269743 45.22439098 23.29820633 C41.3801444 23.31686393 37.53596322 23.32203998 33.69167519 23.32357025 C31.85253722 23.32659033 30.01340024 23.33459703 28.17430687 23.34775543 C25.59670821 23.3648811 23.01977172 23.36291989 20.44213867 23.35644531 C19.68812775 23.3656601 18.93411682 23.37487488 18.15725708 23.3843689 C13.06259914 23.34444251 9.53278632 22.36757608 5 20 C0.41425766 15.29358023 -0.13861429 11.64360006 -0.0625 5.25 C-0.05347656 4.26515625 -0.04445313 3.2803125 -0.03515625 2.265625 C-0.02355469 1.51796875 -0.01195313 0.7703125 0 0 Z " fill="#0276C9" transform="translate(21,106)"/>
</svg>
