<?xml version="1.0" encoding="utf-8"?>
<svg xmlns="http://www.w3.org/2000/svg" width="1024" height="1024" viewBox="0 0 1024 1024">
  <path d="M0 0h1024v1024H0z" fill="none"/>
  <path fill="#ab41ff" d="M 880.001 111.997 L 143.998 111.997 C 126.298 111.997 111.998 126.307 111.998 143.997 L 111.998 880.002 C 111.998 897.702 126.298 912.002 143.998 912.002 L 880.001 912.002 C 897.701 912.002 912.001 897.702 912.001 880.002 L 912.001 143.997 C 912.001 126.307 897.701 111.997 880.001 111.997 M 840.001 840.002 L 183.998 840.002 L 183.998 183.997 L 840.001 183.997 L 840.001 840.002 Z" style="stroke-width: 1;"/>
  <path fill="#ab41ff" d="M 788.004 211.997 L 235.996 211.997 C 222.721 211.997 211.996 222.73 211.996 235.997 L 211.996 788.003 C 211.996 801.278 222.721 812.003 235.996 812.003 L 788.004 812.003 C 801.271 812.003 812.004 801.278 812.004 788.003 L 812.004 235.997 C 812.004 222.73 801.271 211.997 788.004 211.997" style="stroke-width: 1;"/>
</svg>